# xmcd
#
# Track frame offsets: 
#        150
#        22569
#        35002
#        65721
#        86669
#        106095
#        132642
#        160915
#        187508
#        212945
#        241117
#        260317
#        278662
#        300142
#
# Disc length: 4033 seconds
#
# Revision: 0
# Processed by: cddbd v1.5.2PL0 Copyright (c) Steve Scherf et al.
# Submitted via: ExactAudioCopy v0.95b4
#
DISCID=ac0fbf0e
DTITLE=Full Throttle Blues Band - Full Throttle Blues Band
DYEAR=2005
DGENRE=Blues
TTITLE0=Everyday (I Have The Blues)
TTITLE1=Shotgun
TTITLE2=Down Home Blues/Steppin' Out, Steppin' In
TTITLE3=Shame Shame Shame
TTITLE4=Ain't No Sunshine
TTITLE5=Superstition
TTITLE6=Crosscut Saw
TTITLE7=I Heard It Through The Grapevine
TTITLE8=Use Me
TTITLE9=All Blues
TTITLE10=Will It Go 'Round In Circles?
TTITLE11=Help Me
TTITLE12=Got My Mojo Workin'
TTITLE13=Hey Hey Hey Hey
EXTD=
EXTT0=
EXTT1=
EXTT2=
EXTT3=
EXTT4=
EXTT5=
EXTT6=
EXTT7=
EXTT8=
EXTT9=
EXTT10=
EXTT11=
EXTT12=
EXTT13=
PLAYORDER=
